<?xml version="1.0" encoding="UTF-8"?>
<svg id="_레이어_1" data-name="레이어_1" xmlns="http://www.w3.org/2000/svg" viewBox="0 0 125.21 33.76">
  <defs>
    <style>
      .cls-1 {
        fill: #d89428;
      }

      .cls-2 {
        fill: #fff;
      }

      .cls-3 {
        fill: #009681;
      }

      .cls-4 {
        fill: #221e1f;
      }
    </style>
  </defs>
  <g>
    <rect class="cls-3" width="72.53" height="33.76"/>
    <rect class="cls-1" x="89.94" width="35.28" height="33.76"/>
    <rect class="cls-4" x="72.19" width="18.07" height="33.76"/>
  </g>
  <g>
    <path class="cls-2" d="M47.17,19.86c-.01,1.25-.36,2.27-1.88,2.28h0c-1.52,0-1.87-1.03-1.88-2.28v-9.06h-1.67v9.07c0,2.02,1.13,3.61,3.56,3.61h0c2.43,0,3.56-1.59,3.56-3.61v-9.07h-1.67v9.06Z"/>
    <polygon class="cls-2" points="15.79 16.11 12.02 16.11 12.02 10.8 10.35 10.8 10.35 23.37 12.02 23.37 12.02 17.51 15.79 17.51 15.79 23.37 17.46 23.37 17.46 10.8 15.79 10.8 15.79 16.11"/>
    <polygon class="cls-2" points="64.6 19.77 61.25 10.8 58.76 10.8 58.76 23.37 60.4 23.37 60.4 12.75 64.44 23.37 66.23 23.37 66.23 10.8 64.6 10.8 64.6 19.77"/>
    <polygon class="cls-2" points="29.55 16.14 27.31 10.8 25.58 10.8 28.7 18.06 28.7 23.37 30.37 23.37 30.37 18.04 33.46 10.8 31.71 10.8 29.55 16.14"/>
    <rect class="cls-2" x="113.29" y="10.8" width="1.62" height="12.57"/>
    <path class="cls-2" d="M80.37,10.8h-2.67v12.57h2.67c1.4,0,2.55-.37,3.33-1.35.79-.98,1.21-2.55,1.21-4.94s-.42-3.96-1.21-4.94c-.79-.98-1.94-1.34-3.34-1.34ZM80.05,21.97h-.71v-9.78h.71c2.07.01,3.22.65,3.24,4.9-.02,4.25-1.16,4.86-3.24,4.88Z"/>
    <path class="cls-2" d="M97.57,10.8v.05s-3,12.51-3,12.51h1.69l.79-3.53h3.3l.79,3.53h1.68l-2.98-12.56h-2.27ZM97.28,18.41l1.41-6.3,1.41,6.3h-2.81Z"/>
  </g>
</svg>