<?xml version="1.0" encoding="UTF-8"?>
<svg xmlns="http://www.w3.org/2000/svg" version="1.1" viewBox="0 0 240 240">
  <defs>
    <style>
      .cls-1 {
        fill: #45b035;
      }

      .cls-2 {
        fill: #003477;
      }
    </style>
  </defs>
  <!-- Generator: Adobe Illustrator 28.7.1, SVG Export Plug-In . SVG Version: 1.2.0 Build 142)  -->
  <g>
    <g id="_레이어_1" data-name="레이어_1">
      <g>
        <g>
          <g>
            <polygon class="cls-2" points="66.04 189.59 66.04 176.92 61.49 176.92 61.49 189.59 58.37 189.59 58.37 176.92 53.81 176.92 53.81 189.59 47.65 189.59 47.65 193.16 75.81 193.16 75.81 189.59 66.04 189.59"/>
            <path class="cls-2" d="M68.6,186.12h2.97c1.11-5.72,1.9-12.86,2.37-17.66.25-2.58.27-3.93-2.06-3.93h-21.19v3.57h17.91v18.02Z"/>
          </g>
          <g>
            <polygon class="cls-2" points="96.9 189.59 96.9 183.49 91.82 183.49 91.82 189.59 80.2 189.59 80.2 193.16 108.36 193.16 108.36 189.59 96.9 189.59"/>
            <path class="cls-2" d="M101.58,181.57c2.1,0,2.83-1.17,2.83-2.84v-14.51h-5.09v5.88h-10.08v-5.88h-5.08v14.51c0,1.67.72,2.84,2.82,2.84h14.6ZM89.24,178.5v-4.83h10.08v4.83h-10.08Z"/>
          </g>
          <g>
            <path class="cls-2" d="M165.11,183.63c-1.87-1.21-4.21-1.73-6.75-1.73s-4.88.52-6.74,1.73c-2.06,1.33-3,3.13-3,5.13s.94,3.81,3,5.13c1.87,1.2,4.21,1.73,6.74,1.73s4.88-.53,6.75-1.73c2.06-1.32,3-3.13,3-5.13s-.94-3.81-3-5.13ZM161.96,191.19c-.94.78-2.21,1.11-3.59,1.11s-2.65-.34-3.59-1.11c-.85-.7-1.1-1.52-1.1-2.43s.25-1.74,1.1-2.44c.94-.77,2.21-1.1,3.59-1.1s2.66.33,3.59,1.1c.85.7,1.1,1.52,1.1,2.44s-.25,1.74-1.1,2.43Z"/>
            <polygon class="cls-2" points="163.1 163.12 163.1 166.98 159.27 166.98 159.27 170.54 163.1 170.54 163.1 172.97 159.27 172.97 159.27 176.54 163.1 176.54 163.1 181.1 168.19 181.1 168.19 163.12 163.1 163.12"/>
            <path class="cls-2" d="M154.81,179.55c2.11,0,2.83-1.17,2.83-2.84v-12.18h-13.88v12.18c0,1.67.72,2.84,2.82,2.84h8.22ZM152.55,168.1v7.88h-3.7v-7.88h3.7Z"/>
          </g>
          <g>
            <path class="cls-2" d="M122.44,180.36l2.29-1.72c-3.76-4.27-4.85-8.7-4.85-14.41h-4.72c0,5.71-1.08,10.14-4.85,14.41l2.29,1.72c2.27-1.97,3.7-4.08,4.91-6.64,1.22,2.56,2.65,4.67,4.92,6.64Z"/>
            <path class="cls-2" d="M133.74,183.87c-1.87-1.19-4.21-1.7-6.75-1.7s-4.88.51-6.75,1.7c-2.06,1.3-2.99,3.06-2.99,5.03s.94,3.74,2.99,5.04c1.87,1.18,4.21,1.69,6.75,1.69s4.88-.51,6.75-1.69c2.06-1.3,2.99-3.07,2.99-5.04s-.94-3.73-2.99-5.03ZM130.59,191.24c-.94.75-2.21,1.07-3.59,1.07s-2.65-.32-3.59-1.07c-.85-.67-1.09-1.46-1.09-2.34s.24-1.67,1.09-2.34c.94-.74,2.21-1.06,3.59-1.06s2.65.32,3.59,1.06c.85.67,1.1,1.46,1.1,2.34s-.25,1.67-1.1,2.34Z"/>
            <polygon class="cls-2" points="132.26 163.12 132.26 169.78 130.37 169.78 130.37 163.12 125.81 163.12 125.81 180.83 130.37 180.83 130.37 173.35 132.26 173.35 132.26 180.83 136.82 180.83 136.82 163.12 132.26 163.12"/>
          </g>
        </g>
        <g>
          <g>
            <path class="cls-2" d="M106.13,109.14c-5.18,0-9.73,1.68-12.81,4.83-3.52,3.48-5.46,8.95-5.46,15.39s1.93,11.91,5.46,15.39c3.08,3.16,7.63,4.88,12.81,4.88s9.79-1.72,12.86-4.88c3.46-3.48,5.4-8.95,5.4-15.39s-1.94-11.92-5.4-15.39c-3.08-3.15-7.69-4.83-12.86-4.83ZM113.54,140.54h0c-1.69,2.16-4.36,3.39-7.41,3.39s-5.72-1.23-7.36-3.39c-1.89-2.34-2.89-6.25-2.89-11.18s.99-8.78,2.89-11.18c1.63-2.15,4.36-3.33,7.36-3.33s5.72,1.17,7.41,3.33c1.89,2.41,2.87,6.25,2.87,11.18s-.97,8.83-2.87,11.17Z"/>
            <path class="cls-2" d="M206.19,113.97c-3.09-3.15-7.69-4.83-12.86-4.83s-9.73,1.68-12.83,4.83c-3.49,3.48-5.42,8.95-5.42,15.39s1.92,11.91,5.42,15.39c3.11,3.16,7.65,4.88,12.83,4.88s9.77-1.72,12.86-4.88c3.47-3.48,5.4-8.95,5.4-15.39s-1.92-11.92-5.4-15.39ZM200.74,140.54h0c-1.69,2.15-4.36,3.39-7.41,3.39s-5.72-1.23-7.37-3.39c-1.88-2.34-2.88-6.25-2.88-11.17s1-8.78,2.88-11.18c1.64-2.15,4.37-3.33,7.37-3.33s5.72,1.17,7.41,3.32c1.89,2.41,2.86,6.26,2.86,11.18s-.97,8.83-2.86,11.17Z"/>
            <path class="cls-2" d="M69.81,148.7c-.44-.4-.98-1.32-.98-2.71v-14.05l13.1-21.96h-8.97c.65.65.71,1.68-.08,2.92l-7.1,12.29c-5.97-10.8-5.96-11.11-7.04-13.07-.84-1.48-1.56-2.13-3.15-2.13h-7.07c.56.52,1.14,1.3,2.35,3.31l10.45,18.55v14.15c0,1.38-.53,2.31-.98,2.71h9.47Z"/>
            <path class="cls-2" d="M136.89,148.7c.45-.4.98-1.32.98-2.71v-33.3c0-1.38-.54-2.31-.98-2.71h12.82c6.15,0,11.52,2.97,11.52,8.73,0,2.44-1.12,5.89-3.96,7.42,3.45,1.32,7.11,4.5,7.11,9.9,0,4-1.98,7.51-4.66,9.53-2.48,1.87-5.33,3.13-10,3.13h-12.82ZM145.38,124.61c1.4.16,4.25-.02,5.48-.66,1.23-.64,2.63-1.58,2.63-4.01s-2.03-4.37-4.99-4.37c-1.11,0-2.03.06-3.11.39v8.65ZM153.77,142.19c2.22-1.43,2.73-3.5,2.73-5.68,0-4.24-3.73-6.2-7.33-6.2-.77,0-2.62.03-3.8.23v12.4c2.47.69,6.42.52,8.39-.75Z"/>
            <path class="cls-2" d="M14.79,146c0,1.38-.54,2.31-.98,2.71h9.47c-.44-.4-.98-1.32-.98-2.71v-15.12l11,15.7c1.02,1.48,1.81,2.13,3.4,2.13h7.59c-.62-.52-1.29-1.3-2.73-3.31l-12.4-17.58,12.68-17.82h-9.33c.49.63.54,1.43-.36,2.95l-9.84,14.18v-14.42c0-1.38.54-2.31.98-2.71h-9.47c.44.4.98,1.32.98,2.71v33.3Z"/>
          </g>
          <path class="cls-1" d="M223.73,56.98c-3.53-3.57-9.37-2.96-12.82.69-4.48,4.7-7.96,6.46-12.11,6.28-5.79-.25-8.65-4.73-11.63-10.38-3.09-5.91-7.84-9.19-13.76-9.19-9.32,0-14.91,7.54-14.91,15.95,0,12.95,9.1,20.69,15.4,23.95,5.24,2.72,11.06,3.86,16.24,3.99-.31,3.1-1.22,7.18-2.23,10.07h10.66c-1.05-2.89-1.98-7.31-2.26-10.41,15.61-2.03,23.03-9.12,27.09-15.87,1.82-2.96,2.79-6.04,2.78-8.8-.01-2.42-.78-4.62-2.46-6.28ZM173.49,65.08c-3.03.19-5.61-2.09-5.8-5.1-.19-3,2.08-5.6,5.11-5.79,3-.19,5.58,2.1,5.77,5.11.19,3-2.08,5.6-5.08,5.79Z"/>
        </g>
      </g>
    </g>
  </g>
</svg>